<svg xmlns="http://www.w3.org/2000/svg" xmlns:xlink="http://www.w3.org/1999/xlink" width="367" height="367" viewBox="0 0 367 367"><defs><style>.a,.d,.f{fill:none;}.a,.d{stroke:#707070;}.b{clip-path:url(#a);}.c{opacity:0.2;}.d{stroke-width:10px;}.e{stroke:none;}</style><clipPath id="a"><circle class="a" cx="183.5" cy="183.5" r="183.5" transform="translate(775 355)"/></clipPath></defs><g class="b" transform="translate(-775 -355)"><g class="c" transform="translate(662.956 392.739)"><g transform="matrix(0.829, -0.559, 0.559, 0.829, 168.544, 239.307)"><line class="d" y1="98.651" x2="232.621" transform="translate(0 36.69)"/><g class="d" transform="translate(226.379 0)"><circle class="e" cx="25.119" cy="25.119" r="25.119"/><circle class="f" cx="25.119" cy="25.119" r="20.119"/></g></g><g transform="matrix(-0.799, -0.602, 0.602, -0.799, 556.058, 427.992)"><line class="d" y1="98.651" x2="232.621" transform="translate(0 36.69)"/><g class="d" transform="translate(226.379 0)"><circle class="e" cx="25.119" cy="25.119" r="25.119"/><circle class="f" cx="25.119" cy="25.119" r="20.119"/></g></g><g transform="translate(132.303 -152.701) rotate(51)"><line class="d" y1="98.651" x2="232.621" transform="translate(0 36.69)"/><g class="d" transform="translate(226.379 0)"><circle class="e" cx="25.119" cy="25.119" r="25.119"/><circle class="f" cx="25.119" cy="25.119" r="20.119"/></g></g><g transform="matrix(-0.829, 0.559, -0.559, -0.829, 475.361, 81.515)"><line class="d" y1="81.417" x2="164.875" transform="translate(0 39.708)"/><g class="d" transform="translate(158.119 0)"><circle class="e" cx="27.186" cy="27.186" r="27.186"/><circle class="f" cx="27.186" cy="27.186" r="22.186"/></g></g><g transform="translate(267.975 190.764) rotate(175.008)"><line class="d" y1="78.762" x2="169.614" transform="translate(0 37.131)"/><g class="d" transform="translate(165.689 0)"><circle class="e" cx="25.119" cy="25.119" r="25.119"/><circle class="f" cx="25.119" cy="25.119" r="20.119"/></g></g></g></g></svg>